<?xml version="1.0" encoding="utf-8"?>
<!-- Generator: Adobe Illustrator 19.0.1, SVG Export Plug-In . SVG Version: 6.00 Build 0)  -->
<svg version="1.1" id="Capa_1" xmlns="http://www.w3.org/2000/svg" xmlns:xlink="http://www.w3.org/1999/xlink" x="0px" y="0px"
	 viewBox="-289 381.3 31.7 31.7" style="enable-background:new -289 381.3 31.7 31.7;" xml:space="preserve">
<style type="text/css">
	.st0{fill:#13796E;}
</style>
<g>
	<path class="st0" d="M-259.8,384.8c-0.2-0.3-0.5-0.5-0.7-0.7c-0.6-0.5-1.3-0.8-2-1.1c-1.5-0.6-3.1-1-4.7-1.2c-2-0.3-3.9-0.4-6-0.5
		c-1.9,0-3.8,0.1-5.7,0.4c-1.4,0.2-2.7,0.5-4,1c-0.9,0.3-1.7,0.6-2.5,1.2c-0.4,0.2-0.7,0.5-1,0.9c-0.3,0.4-0.5,0.9-0.4,1.5
		c0.2,1.1,0.3,2.2,0.5,3.3c0.3,1.6,0.5,3.2,0.8,4.8c0.3,1.8,0.6,3.6,0.9,5.4c0.1,0.4,0.2,0.8,0.5,1.1c0.2,0.2,0.4,0.4,0.6,0.5
		c0.7,0.6,1.6,1,2.4,1.4c2.1,0.8,4.3,1.2,6.5,1.3c1.6,0.1,3.2,0,4.8-0.2c1.4-0.2,2.7-0.5,4-0.9c1-0.3,1.9-0.8,2.7-1.4
		c0.4-0.3,0.7-0.5,0.9-0.9c0.2-0.2,0.3-0.5,0.4-0.8c0.4-2.3,0.8-4.7,1.2-7c0.4-2.2,0.7-4.3,1.1-6.5
		C-259.4,385.7-259.5,385.3-259.8,384.8z M-273.2,401c-2.4,0-4.3-2-4.3-4.4c0-2.4,2-4.3,4.4-4.3c2.4,0,4.4,2,4.4,4.4
		C-268.8,399-270.8,401-273.2,401z M-264.5,385.7c-0.1,0.1-0.3,0.3-0.4,0.4c-0.5,0.3-1,0.4-1.5,0.5c-1,0.2-1.9,0.4-2.9,0.5
		c-1.3,0.1-2.6,0.2-3.8,0.2c-1.5,0-2.9-0.1-4.3-0.2c-1.1-0.1-2.1-0.3-3.1-0.6c-0.3-0.1-0.6-0.2-0.9-0.4c-0.1-0.1-0.3-0.2-0.4-0.3
		c-0.2-0.2-0.2-0.4,0-0.7c0.1-0.1,0.3-0.2,0.4-0.3c0.4-0.2,0.9-0.4,1.4-0.5c1-0.3,2-0.4,3-0.5c1.7-0.2,3.3-0.2,5-0.2
		c1.5,0,3,0.2,4.6,0.4c0.7,0.1,1.4,0.3,2.1,0.5c0.2,0.1,0.5,0.2,0.7,0.3c0.1,0.1,0.2,0.2,0.3,0.3
		C-264.3,385.3-264.3,385.5-264.5,385.7z M-262.8,404.1c0,0.1,0,0.2,0,0.3c-0.3,1.6-0.6,3.2-0.9,4.8c-0.1,0.5-0.3,1-0.7,1.4
		c-0.4,0.4-0.9,0.8-1.4,1c-1,0.5-2,0.8-3.1,1c-1.4,0.3-2.8,0.4-3.6,0.4c-2.4,0-4.2-0.2-5.9-0.7c-0.8-0.2-1.6-0.5-2.3-1
		c-0.4-0.2-0.7-0.5-1-0.8c-0.4-0.4-0.6-0.8-0.7-1.4c-0.3-1.6-0.6-3.2-0.9-4.8c0-0.1,0-0.2,0-0.2c0-0.4,0.4-0.6,0.7-0.4
		c0,0,0.1,0,0.1,0.1c1.2,0.9,2.5,1.4,3.9,1.9c1.3,0.4,2.6,0.6,3.9,0.8c1.5,0.1,3,0.1,4.5-0.1c2-0.3,3.9-0.9,5.7-1.8
		c0.4-0.2,0.7-0.4,1-0.6c0.1,0,0.1-0.1,0.2-0.1C-263.2,403.5-262.8,403.7-262.8,404.1z M-271,396.6c0,1.2-1,2.2-2.2,2.2
		c-1.2,0-2.2-1-2.2-2.2c0-1.2,1-2.2,2.2-2.2C-271.9,394.4-271,395.4-271,396.6z"/>
</g>
</svg>
