<?xml version="1.0" encoding="utf-8"?>
<!-- Generator: Adobe Illustrator 19.1.0, SVG Export Plug-In . SVG Version: 6.00 Build 0)  -->
<svg version="1.1" id="Layer_1" xmlns:sketch="http://www.bohemiancoding.com/sketch/ns"
	 xmlns="http://www.w3.org/2000/svg" xmlns:xlink="http://www.w3.org/1999/xlink" x="0px" y="0px" viewBox="-290 381.9 30.2 30.1"
	 style="enable-background:new -290 381.9 30.2 30.1;" xml:space="preserve">
<style type="text/css">
	.st0{fill:#FFFFFF;}
</style>
<title>logo-square</title>
<desc>Created with Sketch.</desc>
<g id="Page-1" sketch:type="MSPage">
	<g id="gitlab_logo" transform="translate(-438.000000, -339.000000)" sketch:type="MSLayerGroup">
		
			<g id="g10" transform="translate(1000.000000, 587.333300) scale(1, -1) translate(-1000.000000, -587.333300) translate(0.000000, 0.333300)">
			<g id="g16">
				<g id="g18-Clipped">
					<g id="path22">
					</g>
					<g id="g18">
						<g transform="translate(438.666658, 358.666658)">
							<g id="g52" transform="translate(247.197860, 1.160267)">
								<g id="path54">
								</g>
							</g>
							<g id="g60" transform="translate(247.197860, 1.160800)">
								<g id="path62">
								</g>
							</g>
							<g id="g68" transform="translate(247.197860, 1.160267)">
								<g id="path70">
								</g>
							</g>
						</g>
					</g>
				</g>
			</g>
		</g>
	</g>
</g>
<path class="st0" d="M-259.9,399.3c0-0.1,0-0.2,0-0.3l-1.7-5.2l0,0l-1.2-3.7l-2.1-6.7c-0.2-0.4-0.6-0.5-0.9-0.3
	c-0.1,0.1-0.2,0.2-0.3,0.3l-3.3,10.3h-11l-3.3-10.3c-0.2-0.5-0.9-0.5-1.1,0l0,0l0,0l-3.4,10.3l0,0l0.1,0.1l0,0l-0.1-0.1l-1.7,5.2
	c-0.2,0.5,0,1,0.4,1.3l14.6,10.6l-0.2-0.3l0.1,0.1l0.1,0.1v0.1l0,0l0,0l0,0l0,0l0,0l0,0l0,0h0.1l0,0l14.6-10.6
	c0.1-0.1,0.2-0.3,0.3-0.5C-259.9,399.5-259.8,399.5-259.9,399.3z M-274.9,410.9L-274.9,410.9L-274.9,410.9L-274.9,410.9
	L-274.9,410.9z"/>
</svg>
