<?xml version="1.0" encoding="utf-8"?>
<!-- Generator: Adobe Illustrator 19.0.1, SVG Export Plug-In . SVG Version: 6.00 Build 0)  -->
<svg version="1.1" id="Layer_1" xmlns:sketch="http://www.bohemiancoding.com/sketch/ns"
	 xmlns="http://www.w3.org/2000/svg" xmlns:xlink="http://www.w3.org/1999/xlink" x="0px" y="0px" viewBox="-580 762.8 30.2 30.1"
	 style="enable-background:new -580 762.8 30.2 30.1;" xml:space="preserve">
<style type="text/css">
	.st0{fill:#13796E;}
</style>
<title>logo-square</title>
<desc>Created with Sketch.</desc>
<g id="Page-1" sketch:type="MSPage">
	<g id="gitlab_logo" transform="translate(-438.000000, -339.000000)" sketch:type="MSLayerGroup">
		
			<g id="g10" transform="translate(1000.000000, 587.333300) scale(1, -1) translate(-1000.000000, -587.333300) translate(0.000000, 0.333300)">
			<g id="g16">
				<g id="g18-Clipped">
					<g id="path22">
					</g>
					<g id="g18">
						<g transform="translate(438.666658, 358.666658)">
							<g id="g52" transform="translate(247.197860, 1.160267)">
								<g id="path54">
								</g>
							</g>
							<g id="g60" transform="translate(247.197860, 1.160800)">
								<g id="path62">
								</g>
							</g>
							<g id="g68" transform="translate(247.197860, 1.160267)">
								<g id="path70">
								</g>
							</g>
						</g>
					</g>
				</g>
			</g>
		</g>
	</g>
</g>
<path class="st0" d="M-549.9,780c0-0.1,0-0.2,0-0.3l-1.7-5.2h0l-1.2-3.7l-2.1-6.7c-0.2-0.4-0.6-0.5-0.9-0.3
	c-0.1,0.1-0.2,0.2-0.3,0.3l-3.3,10.3h-11l-3.3-10.3c-0.2-0.5-0.9-0.5-1.1,0l0,0c0,0,0,0,0,0l-3.4,10.3h0l0.1,0.1l0,0l-0.1-0.1
	l-1.7,5.2c-0.2,0.5,0,1,0.4,1.3l14.6,10.6l-0.2-0.3l0.1,0.1l0.1,0.1l0,0.1l0,0l0,0l0,0l0,0l0,0l0,0l0,0l0.1,0l0,0l14.6-10.6
	c0.1-0.1,0.2-0.3,0.3-0.5C-549.9,780.3-549.8,780.2-549.9,780z M-564.9,791.6L-564.9,791.6L-564.9,791.6L-564.9,791.6L-564.9,791.6z
	"/>
</svg>
